<?xml version="1.0" standalone="no"?>
<!DOCTYPE svg PUBLIC "-//W3C//DTD SVG 1.0//EN" "http://www.w3.org/TR/2001/REC-SVG-20010904/DTD/svg10.dtd">
<svg xmlns="http://www.w3.org/2000/svg" xmlns:xlink="http://www.w3.org/1999/xlink" id="body_1" width="2202" height="1651">

<defs>
    <linearGradient transform="matrix(1 0 0 1 126.9795 107.5591)"  id="1" x1="-38.3423" y1="-66.6387" x2="-38.3423" y2="-6.9216">
        <stop stop-color="#158337" offset="0%"/>
        <stop stop-color="#17411E" offset="100%"/>
    </linearGradient>
    <linearGradient transform="matrix(1 0 0 1 0 0)"  id="253" x1="88.663" y1="29.8824" x2="100.6056" y2="85.7763">
        <stop stop-color="#FFFFFF" offset="0%"/>
        <stop stop-color="#142D14" offset="100%"/>
    </linearGradient>
    <linearGradient transform="matrix(1 0 0 1 126.9795 107.5591)"  id="490" x1="-54.9038" y1="-58.2622" x2="-54.9038" y2="-27.8595">
        <stop stop-color="#158337" offset="0%"/>
        <stop stop-color="#17411E" offset="100%"/>
    </linearGradient>
    <linearGradient transform="matrix(1 0 0 1 0 0)"  id="745" x1="75.0623" y1="31.9781" x2="85.389" y2="80.3092">
        <stop stop-color="#FFFFFF" offset="0%"/>
        <stop stop-color="#142D14" offset="100%"/>
    </linearGradient>
    <linearGradient transform="matrix(1 0 0 1 0 0)"  id="981" x1="119.8506" y1="111.2046" x2="11.2842" y2="111.2046">
        <stop stop-color="#86BD40" offset="0%"/>
        <stop stop-color="#2E9136" offset="100%"/>
    </linearGradient>
    <linearGradient transform="matrix(1 0 0 1 126.9795 107.5591)"  id="1221" x1="-86.0259" y1="-59.1221" x2="-75.435" y2="-14.696">
        <stop stop-color="#86BD40" offset="0%"/>
        <stop stop-color="#2E9136" offset="100%"/>
    </linearGradient>
    <linearGradient transform="matrix(1 0 0 1 0 0)"  id="1475" x1="69.012" y1="78.2729" x2="78.9487" y2="75.0931">
        <stop stop-color="#FCC313" offset="0%"/>
        <stop stop-color="#FFFFFF" offset="100%"/>
    </linearGradient>
</defs>

<g transform="matrix(13.7625 0 0 13.7625 -0 206.1875)">
	<g transform="matrix(0.5466102 0 0 0.5466102 44.22655 3.691851)">
        <path d="M65.45 0L130.892 37.788L130.892 113.359L65.45 151.143L0 113.359L0 37.788L65.45 0" stroke="none" fill="#2E9136" fill-rule="nonzero" />
		<g>
            <path d="M65.45 0.751L130.243 38.163L130.243 112.984L65.45 150.393L0.652 112.984L0.652 38.163L65.45 0.751" stroke="none" fill="#FFCD1C" fill-rule="nonzero" />
            <path d="M4.669 110.664L4.669 40.482L65.45 5.391L126.226 40.482L126.226 110.664L65.45 145.754L4.669 110.664" stroke="#2E9136" stroke-width="1" fill="none" />
		</g>
		<g>
            <path d="M65.45 5.825L125.849 40.699L125.849 110.448L65.45 145.319L5.043 110.448L5.043 40.699L65.45 5.825" stroke="none" fill="#FFFFFF" fill-rule="nonzero" />
		</g>
		<g>
            <path d="M65.442 8.856L123.079 41.966L123.37 109.018L65.45 142.455L7.525 109.018L7.525 42.13L65.442 8.856" stroke="#2E9136" stroke-width="1" fill="none" />
		</g>
		<g>
            <path d="M65.45 5.986L125.712 40.781L125.712 110.366L65.45 145.158L5.183 110.366L5.183 40.781L65.45 5.986" stroke="#2E9136" stroke-width="0.5" fill="none" />
		</g>
		<g>
			<g>
                <path d="M105.183 90.037L87.438 34.88C 87.233 34.239 86.657 33.821 86 33.827C 85.346 33.827 84.773 34.26 84.574 35.438L84.574 35.438L67.573 90.59C 67.421 90.518 67.505 91.034996 67.787994 91.426994C 68.06699 91.824 68.52599 92.062 69.006996 92.062L69.006996 92.062L103.756996 92.062C 104.237 92.062 104.688995 91.819 104.967995 91.419C 105.253 91.017 105.326996 90.508995 105.18299 90.037L105.18299 90.037L105.183 90.037z" stroke="none" fill="#1B3617" fill-rule="nonzero" />
				<g>
					<g>
                        <path d="M107.849 90.89L89.714 34.226C 89.510994 33.568 88.924995 33.126003 88.253 33.135002C 87.585 33.135002 87.005 33.577003 86.794 34.239002L86.794 34.239002L69.427 90.913C 69.277 91.381004 69.359 91.914 69.646 92.324005C 69.935005 92.731 70.398 92.975006 70.888 92.975006L70.888 92.975006L86.054 92.975006L86.054 105.80101L91.214005 104.78001L91.214005 92.976L106.378006 92.976C 106.878006 92.976 107.339005 92.723 107.628006 92.312996C 107.91701 91.904 107.99901 91.367 107.84901 90.89L107.84901 90.89L107.849 90.89z" stroke="none" fill="url(#1)" />
					</g>
				</g>
				<g>
                    <path d="M106.224 90.922L89.108 35.595C 88.967 35.124 88.622 34.82 88.253 34.847C 87.888 34.88 87.590996 35.211 87.499 35.708L87.499 35.708L86.558 41.177002C 88.822 49.936 98.671 85.456 100.078995 90.936005C 100.078995 90.936005 106.13 90.825005 106.22399 90.922005L106.22399 90.922005L106.224 90.922z" stroke="none" fill="url(#253)" />
				</g>
			</g>
			<g>
                <path d="M89.575 81.585L70.542 21.764C 70.321 21.073 69.71 20.613 69.005 20.621C 68.3 20.624 67.687 21.093 67.476 22.247L67.476 22.247L49.228 82.07C 49.074 82.107 49.161 82.661 49.461002 83.088C 49.768 83.513 50.255 83.776 50.766003 83.776L50.766003 83.776L88.04201 83.776C 88.560005 83.776 89.05001 83.513 89.354004 83.08C 89.65301 82.649 89.735 82.097 89.575005 81.585L89.575005 81.585L89.575 81.585z" stroke="none" fill="#1B3617" fill-rule="nonzero" />
				<g>
					<g>
                        <path d="M92.247 80.2L73.214 20.368C 72.993 19.678 72.383995 19.221 71.676994 19.228C 70.97399 19.236 70.354996 19.705 70.147995 20.391L70.147995 20.391L51.898994 80.211C 51.744995 80.718 51.834995 81.272995 52.134995 81.698C 52.435993 82.126 52.928993 82.381 53.440994 82.381L53.440994 82.381L68.204 82.381L68.204 99.247L72.21 99.247L72.21 82.381L90.714 82.381C 91.23399 82.381 91.717995 82.12299 92.02599 81.689995C 92.325 81.258995 92.40699 80.701 92.246994 80.2L92.246994 80.2L92.247 80.2z" stroke="none" fill="url(#490)" />
					</g>
				</g>
				<g>
                    <path d="M89.528 80.561L72.798 23.297C 72.659 22.809 72.321 22.489 71.96999 22.524C 71.61499 22.548 71.32199 22.896 71.243996 23.402L71.243996 23.402L70.353 29.056C 72.574 38.131 82.212 74.882996 83.59499 80.56C 83.59499 80.561 89.43099 80.465 89.52799 80.561L89.52799 80.561L89.528 80.561z" stroke="none" fill="url(#745)" />
				</g>
			</g>
		</g>
        <path d="M115.397 96.492L115.397 96.476L103.698006 96.476C 103.82101 96.208 103.897 95.909 103.897 95.592995C 103.897 94.448 102.981 93.519 101.850006 93.519C 101.784004 93.519 101.725006 93.533 101.662 93.538994C 101.724 93.31999 101.767006 93.093994 101.767006 92.852C 101.767006 91.543 100.76101 90.481995 99.51501 90.481995C 99.076004 90.481995 98.66901 90.618996 98.324005 90.84499C 98.32201 90.812996 98.314 90.744995 98.302 90.65099C 98.318 90.47599 98.339005 90.298 98.339005 90.118996C 98.339005 88.15099 97.275 86.559 95.962006 86.559C 94.648 86.559 93.587006 88.152 93.587006 90.118996C 93.587006 90.52 93.642006 90.90099 93.72201 91.266L93.72201 91.266L93.060005 91.326996C 93.09501 91.071 93.117004 90.80399 93.117004 90.529C 93.117004 88.423996 91.982 86.715996 90.578 86.715996C 89.172005 86.715996 88.037 88.423996 88.037 90.529C 88.037 90.742 88.055 90.949 88.078 91.153C 87.646 90.506996 87.053 90.108 86.4 90.108C 85.281 90.108 84.357 91.26 84.097 92.810005C 77.068 94.20801 58.289 97.43101 58.289 97.43101L58.289 97.43101L42.204 94.032C 42.012997 92.826996 41.209 91.923 40.246 91.923C 39.892 91.923 39.563 92.057 39.274998 92.272995C 39.276997 92.255 39.276997 92.255 39.28 92.23599C 39.504997 91.74099 39.645 91.17899 39.645 90.57199C 39.645 88.717995 38.449 87.21499 36.973 87.21499C 35.499 87.21499 34.302 88.71799 34.302 90.57199C 34.302 90.90599 34.352997 91.22499 34.427998 91.53199L34.427998 91.53199L33.878998 91.57499C 33.997997 91.22199 34.064 90.83299 34.064 90.42399C 34.064 88.78799 33.019 87.46499 31.727 87.46499C 30.435999 87.46499 29.39 88.78799 29.39 90.42399C 29.39 90.58699 29.407999 90.73999 29.428 90.89499C 29.118 90.637985 28.757 90.48199 28.368 90.48199C 27.261 90.48199 26.362999 91.67399 26.362999 93.14599C 26.362999 93.28299 26.38 93.41699 26.394 93.54699C 25.338 93.62199 24.501 94.77499 24.501 96.19699C 24.501 96.315994 24.498 96.34799 24.511 96.46499C 23.733 96.46199 15.967 96.484985 15.82 96.484985C 13.315 96.484985 11.282 98.58899 11.282 101.179985C 11.282 102.63399 11.780999 104.081985 12.467999 104.81599C 12.601999 104.97599 13.198999 105.48199 13.332 105.56399C 16.855999 107.624985 62.768 134.95299 62.768 134.95299C 62.768 134.95299 65.702 136.71098 67.700005 135.31398C 67.700005 135.31398 110.823006 109.70298 114.319 107.61098C 115.94 106.63998 117.014 106.08198 117.661 105.59498C 118.968 104.76998 119.84901 102.878975 119.84901 101.17998C 119.851006 98.614975 117.86201 96.54198 115.397 96.491974L115.397 96.491974L115.397 96.492z" stroke="none" fill="url(#981)" />
        <path d="M44.301 34.714C 31.393 34.44 21.717 44.377 21.41 58.557C 21.163 72.013 30.732 82.656 42.943 82.935C 55.149 83.182 64.851 73.508 65.14 60.061C 65.394 46.602 56.505 34.984 44.301 34.714z" stroke="none" fill="#255627" fill-rule="nonzero" />
		<g>
			<g>
                <path d="M64.456 60.175C 64.436 46.812 55.245 35.892 43.754 35.878C 32.255 35.892 23.068 46.812 23.048 60.175C 23.067 72.284 30.614 82.387 40.588 84.188L40.588 84.188L40.588 96.181C 40.588 96.243 40.625 96.306 40.717003 96.347C 40.799004 96.399 40.911003 96.416 41.033005 96.416L41.033005 96.416L46.384003 95.268C 46.505 95.268 46.616 95.243996 46.699 95.201C 46.792 95.157 46.831 95.097 46.831 95.034996L46.831 95.034996L46.831 84.201C 56.843 82.442 64.438 72.318 64.456 60.175z" stroke="none" fill="url(#1221)" />
			</g>
		</g>
        <path d="M81.585 80.343C 83.31 80.343 84.704 78.901 84.704 77.12L84.704 77.12L84.335 75.041C 84.335 73.261 82.94 71.814 81.22 71.814L81.22 71.814L48.244 71.814C 46.517998 71.814 45.126 73.26 45.126 75.041L45.126 75.041L44.763 77.12C 44.763 78.9 46.155 80.343 47.876 80.343L47.876 80.343L81.585 80.343z" stroke="#644A2D" stroke-width="0.8" fill="#FFCD1C" fill-rule="nonzero" />
        <path d="M79.388 71.438C 80.419 71.438 83.497 70.72 81.777 67.457L81.777 67.457L80.949 66.135C 79.937 64.354 78.912 62.91 77.191 62.91L77.191 62.91L51.908 62.91C 50.185 62.91 49.428 64.546 48.424 66.135L48.424 66.135L47.69 67.265C 46.684 70.28 48.350998 71.438995 50.074997 71.438995L50.074997 71.438995L79.388 71.438995L79.388 71.438z" stroke="#644A2D" stroke-width="0.8" fill="#FFCD1C" fill-rule="nonzero" />
        <path d="M75.081 62.529C 76.802 62.529 78.839005 62.51 75.726 60.158L75.726 60.158L73.982 59.121C 70.138 57.056 66.546 56.465 64.82 56.465L64.82 56.465L64.644 56.465C 62.919 56.465 59.232998 57.056 55.383995 59.121L55.383995 59.121L53.551994 60.348C 50.437996 62.693 52.659996 62.53 54.380993 62.53L54.380993 62.53L75.08099 62.53L75.081 62.529z" stroke="#644A2D" stroke-width="0.8" fill="#FFCD1C" fill-rule="nonzero" />
        <path d="M82.14 89.253C 83.854996 89.253 85.253 87.807 85.253 86.029L85.253 86.029L85.253 83.946C 85.253 82.17 83.854996 80.724 82.14 80.724L82.14 80.724L47.324 80.724C 45.603 80.724 44.208 82.169 44.208 83.946L44.208 83.946L44.208 86.029C 44.208 87.806 45.603 89.253 47.324 89.253L47.324 89.253L82.14 89.253z" stroke="#644A2D" stroke-width="0.8" fill="#FFCD1C" fill-rule="nonzero" />
        <path d="M82.14 98.162C 83.854996 98.162 85.253 96.716 85.253 94.938L85.253 94.938L85.253 92.855C 85.253 91.076004 83.854996 89.630005 82.14 89.630005L82.14 89.630005L47.324 89.630005C 45.603 89.630005 44.208 91.075005 44.208 92.855L44.208 92.855L44.208 94.938C 44.208 96.715004 45.603 98.162 47.324 98.162L47.324 98.162L82.14 98.162z" stroke="#644A2D" stroke-width="0.8" fill="#FFCD1C" fill-rule="nonzero" />
        <path d="M82.14 107.254C 83.854996 107.254 85.253 105.814995 85.253 104.034L85.253 104.034L85.253 101.953995C 85.253 100.172 83.854996 98.727 82.14 98.727L82.14 98.727L47.324 98.727C 45.603 98.727 44.208 100.172 44.208 101.953995L44.208 101.953995L44.208 104.034C 44.208 105.813995 45.603 107.254 47.324 107.254L47.324 107.254L82.14 107.254z" stroke="#644A2D" stroke-width="0.8" fill="#FFCD1C" fill-rule="nonzero" />
        <path d="M65.286 58.335C 65.286 58.335 80.546005 63.507 82.509 83.574L82.509 83.574L82.509 95.084L69.214 95.084C 69.214 95.084 74.806 66.363 65.285995 58.335L65.285995 58.335L65.286 58.335z" stroke="none" fill="url(#1475)" />
        <path d="M68.989 75.816C 68.989 76.36 68.719 76.803 68.385 76.803L68.385 76.803L61.977 76.803C 61.643 76.803 61.372 76.36 61.372 75.816C 61.372 75.275 61.643 74.833 61.977 74.833L61.977 74.833L68.385 74.833C 68.72 74.833 68.989 75.275 68.989 75.816z" stroke="none" fill="#644A2D" fill-rule="nonzero" />
		<g>
			<g>
				<g>
                    <path d="M59.802 105.748C 59.856 103.095 57.054996 100.884 53.531 100.822C 52.699997 100.807 51.906 100.918 51.175 101.125C 51.244 100.851 51.288 100.569 51.292 100.279C 51.350998 97.631996 48.542 95.432 45.028 95.375C 41.527 95.3 38.642998 97.394 38.595 100.055C 38.589 100.367 38.626 100.671 38.696003 100.967C 37.913002 100.688 37.045002 100.523 36.125004 100.506004C 32.620003 100.442 29.737003 102.53001 29.694004 105.19401C 29.660004 107.338005 31.490004 109.18701 34.046005 109.853004C 33.247005 110.637 32.759007 111.617004 32.742004 112.693C 32.692005 115.337 35.499004 117.536 39.015003 117.602C 41.472004 117.649994 43.617004 116.631996 44.696003 115.103C 45.729004 116.666 47.841003 117.758995 50.297005 117.807C 53.804005 117.868996 56.682007 115.767 56.732006 113.123C 56.750008 112.03 56.277004 111.017 55.476006 110.194C 57.967007 109.582 59.771004 107.834 59.802006 105.748L59.802006 105.748L59.802 105.748zM47.22 104.67C 47.151 104.941 47.107002 105.219 47.102 105.505C 47.084 106.598 47.556 107.612 48.354 108.436C 46.81 108.819 45.529 109.63699 44.769 110.708C 44.023003 109.569 42.706 108.681 41.092003 108.265C 41.893 107.479996 42.382004 106.501 42.4 105.431C 42.405003 105.115 42.366 104.804 42.294003 104.503C 43.081 104.782 43.951004 104.948 44.872 104.965996C 45.7 104.981995 46.491 104.87399 47.22 104.67z" stroke="none" fill="#FFFFFF" fill-rule="nonzero" />
				</g>
			</g>
            <path d="M38.37 107.417C 38.41 104.768 41.295 102.667 44.801 102.736C 48.309998 102.8 51.113 104.994 51.068 107.645996C 51.025 110.296 48.143 112.393 44.633 112.338C 41.128998 112.270996 38.325 110.069 38.37 107.417z" stroke="none" fill="#FFCD1C" fill-rule="nonzero" />
		</g>
		<g>
			<g>
				<g>
                    <path d="M72.763 120.425C 72.677 118.854004 70.941 117.684006 68.88 117.786C 68.389 117.813 67.924995 117.916 67.502 118.07C 67.532 117.906 67.552 117.738 67.544 117.568C 67.47 116.001 65.739 114.832 63.675 114.948C 61.611 115.048996 60.001 116.408 60.079 117.966995C 60.087997 118.15199 60.122997 118.328995 60.177 118.502C 59.704 118.368996 59.188 118.303 58.646 118.331C 56.581 118.447 54.975 119.799 55.053 121.359C 55.115 122.615 56.275 123.621 57.809002 123.902C 57.363003 124.4 57.102 124.996 57.133003 125.633C 57.210003 127.18301 58.943005 128.365 61.013004 128.258C 62.462006 128.177 63.678005 127.47199 64.248 126.522995C 64.914 127.408 66.197 127.976 67.644 127.90199C 69.701 127.78999 71.313995 126.43399 71.24 124.87799C 71.206 124.232994 70.88 123.66199 70.375 123.21099C 71.817 122.745995 72.821 121.649994 72.763 120.42499L72.763 120.42499L72.763 120.425zM64.121 123.983C 63.637 123.337 62.822002 122.869 61.846 122.689C 62.29 122.192 62.55 121.597 62.521 120.961006C 62.511 120.77401 62.475 120.59301 62.42 120.41901C 62.893997 120.55201 63.412 120.617004 63.955997 120.590004C 64.446 120.564 64.908 120.464005 65.33099 120.311005C 65.299995 120.476006 65.27999 120.645004 65.288994 120.817C 65.32099 121.463005 65.647995 122.033005 66.15399 122.482C 65.24899 122.774 64.524994 123.312004 64.120995 123.983z" stroke="none" fill="#FFFFFF" fill-rule="nonzero" />
				</g>
			</g>
            <path d="M60.229 122.301C 60.151 120.736 61.762 119.39 63.825 119.285C 65.887 119.16901 67.618004 120.341 67.702 121.901C 67.778 123.459 66.171005 124.813 64.104004 124.924C 62.038002 125.035 60.306004 123.86 60.229004 122.301L60.229004 122.301L60.229 122.301z" stroke="none" fill="#FFCD1C" fill-rule="nonzero" />
		</g>
		<g>
			<g>
				<g>
                    <path d="M88.13 107.201C 88.04 105.488 86.135994 104.197 83.876 104.319C 83.335 104.347 82.826 104.459 82.36 104.627C 82.393 104.445 82.415 104.262 82.405 104.072C 82.329 102.358 80.419 101.076 78.151 101.192C 75.887 101.304 74.12 102.8 74.208 104.507C 74.219 104.71001 74.259 104.907005 74.317 105.097C 73.797005 104.951 73.23 104.878 72.633 104.909C 70.362 105.033 68.600006 106.522995 68.69 108.232994C 68.756004 109.62599 70.03 110.718994 71.711 111.02599C 71.223 111.57299 70.939995 112.22699 70.977 112.923996C 71.055 114.634995 72.957 115.932 75.230995 115.80499C 76.826996 115.72099 78.160995 114.951996 78.787994 113.90799C 79.51699 114.87899 80.921 115.50299 82.517 115.42299C 84.781 115.29699 86.542 113.81199 86.46 112.10099C 86.426 111.39199 86.065 110.76199 85.506996 110.26799C 87.09499 109.76599 88.2 108.56199 88.13 107.20099L88.13 107.20099L88.13 107.201zM78.646996 111.117C 78.116 110.406 77.22299 109.892 76.15299 109.696C 76.64099 109.15 76.923996 108.498 76.89099 107.802C 76.87999 107.597 76.83999 107.4 76.77999 107.208C 77.29999 107.353 77.86499 107.423 78.45999 107.39C 78.99999 107.362 79.508995 107.251 79.97399 107.083C 79.940994 107.265 79.91899 107.446 79.92899 107.634C 79.96299 108.345 80.32399 108.977005 80.881996 109.472C 79.88699 109.79 79.090996 110.381 78.646996 111.117z" stroke="none" fill="#FFFFFF" fill-rule="nonzero" />
				</g>
			</g>
            <path d="M74.378 109.268C 74.294 107.557 76.058 106.074 78.321 105.956C 80.589 105.835 82.494995 107.117004 82.575 108.834C 82.662994 110.55 80.893 112.029 78.63 112.156C 76.368 112.277 74.46 110.988 74.378 109.268z" stroke="none" fill="#FFCD1C" fill-rule="nonzero" />
		</g>
	</g>
</g>
</svg>